<?xml version="1.0" standalone="no"?>
<!DOCTYPE svg PUBLIC "-//W3C//DTD SVG 20010904//EN"
 "http://www.w3.org/TR/2001/REC-SVG-20010904/DTD/svg10.dtd">
<svg version="1.0" xmlns="http://www.w3.org/2000/svg"
 width="102.000000pt" height="90.000000pt" viewBox="0 0 102.000000 90.000000"
 preserveAspectRatio="xMidYMid meet">

<g transform="translate(0.000000,90.000000) scale(0.100000,-0.100000)"
fill="#ffffff" stroke="none">
<path d="M327 862 c-12 -13 -17 -37 -17 -75 l0 -57 -103 0 c-145 0 -147 -2
-147 -134 0 -111 3 -119 53 -131 26 -7 28 -11 23 -39 -3 -17 -6 -104 -7 -193
l-2 -163 -46 0 c-58 0 -80 -12 -62 -34 11 -13 70 -15 498 -11 323 2 489 7 496
14 19 19 -9 34 -61 33 l-49 -2 -7 165 c-7 172 -2 235 19 235 6 0 19 8 28 18
24 27 25 203 0 223 -11 9 -51 15 -122 17 l-106 4 3 53 c3 43 0 57 -17 74 -20
20 -32 21 -189 21 -151 0 -171 -2 -185 -18z m347 -54 c3 -13 6 -49 6 -80 0
-31 3 -63 6 -72 7 -19 24 -11 24 12 0 15 12 17 110 14 l111 -3 -3 -87 -3 -87
-107 0 c-60 0 -243 1 -408 3 l-300 2 0 85 0 85 100 0 100 0 0 -28 c0 -15 7
-38 16 -50 17 -25 65 -28 224 -15 84 7 84 7 35 14 -27 4 -86 8 -130 8 -44 1
-86 5 -93 10 -11 6 -12 30 -7 110 l8 101 152 0 c150 0 153 0 159 -22z m180
-369 c8 -40 8 -172 0 -220 l-6 -35 -62 0 c-33 0 -78 -4 -98 -8 l-38 -7 0 89
c0 55 -4 92 -12 100 -8 8 -49 12 -119 12 -136 0 -139 -2 -139 -112 l0 -80 -95
4 c-52 2 -97 6 -100 10 -3 3 -8 64 -12 136 l-6 131 64 4 c35 2 188 4 340 5
l277 2 6 -31z m-358 -246 l-1 -123 -32 0 -33 0 0 119 c0 106 2 120 18 124 48
11 49 11 48 -120z m96 -1 c3 -65 2 -121 -2 -125 -4 -4 -18 -5 -31 -2 -24 6
-24 8 -25 129 l-1 122 27 -4 28 -4 4 -116z m-212 -87 l0 -35 -100 0 -100 0 0
29 c0 28 2 30 48 34 26 2 71 4 100 5 l52 2 0 -35z m470 -7 l0 -38 -100 0 -100
0 0 39 0 39 100 -1 100 -2 0 -37z"/>
<path d="M506 775 l-7 -45 -24 28 c-33 38 -42 21 -15 -30 12 -24 16 -37 9 -30
-19 17 -50 16 -43 -3 4 -8 15 -15 25 -15 12 0 16 -5 13 -15 -4 -10 0 -15 14
-15 11 0 22 -7 26 -15 3 -8 10 -15 16 -15 5 0 10 7 10 15 0 9 9 15 25 15 17 0
23 4 19 14 -3 9 3 17 15 21 12 3 21 11 21 16 0 11 -3 11 -34 -1 l-25 -9 19 32
c31 49 24 67 -10 27 l-30 -34 0 52 c0 64 -15 68 -24 7z"/>
</g>
</svg>
