<?xml version="1.0" standalone="no"?>
<!DOCTYPE svg PUBLIC "-//W3C//DTD SVG 20010904//EN"
 "http://www.w3.org/TR/2001/REC-SVG-20010904/DTD/svg10.dtd">
<svg version="1.0" xmlns="http://www.w3.org/2000/svg"
 width="84.000000pt" height="95.000000pt" viewBox="0 0 84.000000 95.000000"
 preserveAspectRatio="xMidYMid meet">

<g transform="translate(0.000000,95.000000) scale(0.100000,-0.100000)"
fill="#ffffff" stroke="none">
<path d="M412 931 c-24 -14 -62 -139 -72 -234 -6 -55 -6 -130 -2 -187 5 -52 8
-97 6 -98 -1 -2 -12 16 -25 40 -32 64 -103 160 -144 197 -73 64 -136 94 -149
73 -10 -16 23 -140 52 -199 32 -62 134 -205 170 -237 12 -11 22 -22 22 -26 0
-4 -28 -9 -62 -12 -76 -5 -143 -34 -143 -63 0 -32 83 -67 169 -72 59 -4 76 -1
104 17 18 11 30 25 27 30 -3 5 -50 9 -103 8 -161 -3 -180 33 -22 40 74 4 90 1
123 -18 35 -21 37 -25 37 -73 0 -65 9 -97 25 -97 8 0 14 21 18 56 3 31 8 58
10 61 3 2 22 0 44 -6 84 -24 226 -6 278 35 20 15 20 16 -9 39 -34 27 -96 45
-157 45 l-42 0 37 43 c115 134 184 254 206 361 16 78 6 87 -56 51 -63 -37
-119 -95 -188 -193 -32 -45 -58 -82 -59 -82 -1 0 -2 75 -2 168 -1 159 -2 171
-30 251 -30 86 -39 97 -63 82z m56 -297 c4 -136 -4 -239 -29 -353 -15 -70 -24
-55 -45 75 -27 173 -20 388 17 480 l12 29 20 -45 c17 -36 21 -72 25 -186z
m298 -2 c-38 -107 -126 -232 -241 -342 -55 -53 -57 -54 -50 -25 3 16 10 32 15
35 4 3 30 52 58 110 28 58 70 127 93 154 41 47 113 106 130 106 4 0 2 -17 -5
-38z m-601 -35 c34 -35 84 -96 111 -137 26 -41 55 -80 65 -87 9 -7 19 -33 23
-63 4 -28 9 -58 13 -68 7 -22 -139 133 -195 207 -67 88 -121 211 -92 211 6 0
40 -28 75 -63z m540 -401 l30 -13 -38 -12 c-46 -16 -181 -11 -198 6 -10 10 -7
15 12 22 35 14 159 12 194 -3z"/>
</g>
</svg>
