<?xml version="1.0" encoding="UTF-8"?>
<svg version="1.1" xmlns="http://www.w3.org/2000/svg" width="3500" height="500">
<path d="M0 0 C0.93164474 -0.01283524 1.86328949 -0.02567047 2.82316589 -0.03889465 C3.82422867 -0.04628159 4.82529144 -0.05366852 5.85668945 -0.0612793 C7.41429741 -0.07338692 7.41429741 -0.07338692 9.00337219 -0.08573914 C11.20144999 -0.09956249 13.39954909 -0.11029245 15.59765625 -0.11816406 C17.83697839 -0.12967437 20.0762733 -0.15011096 22.31542969 -0.1796875 C25.55853848 -0.22252056 28.80083231 -0.23855628 32.04418945 -0.2487793 C33.03513107 -0.26628738 34.02607269 -0.28379547 35.04704285 -0.30183411 C42.5703608 -0.27860227 48.77001408 1.22747661 54.62231445 6.1418457 C55.14954102 6.79282227 55.67676758 7.44379883 56.2199707 8.11450195 C57.03788086 9.08709961 57.03788086 9.08709961 57.87231445 10.0793457 C60.97304334 14.69178729 61.53608696 18.60420829 61.5609436 24.11824036 C61.56673601 24.80446572 61.57252841 25.49069109 61.57849634 26.19771117 C61.59546018 28.49009117 61.59836967 30.7822694 61.60131836 33.07470703 C61.61061904 34.72074882 61.62078792 36.36678589 61.63175964 38.01281738 C61.65905792 42.47724496 61.67420856 46.94164099 61.68718767 51.40613008 C61.70281893 56.07333638 61.72960918 60.74047825 61.75521851 65.40763855 C61.80200634 74.24373165 61.83875045 83.07983686 61.87189138 91.91599053 C61.91011271 101.97641438 61.95952286 112.03677351 62.00987554 122.09714282 C62.11319548 142.79038142 62.2024557 163.48366098 62.2824707 184.17700195 C64.19884378 181.94999813 66.11403258 179.72199402 68.02856445 177.4934082 C68.5668689 176.86809204 69.10517334 176.24277588 69.65979004 175.59851074 C73.27831836 171.38402198 76.7808146 167.09489918 80.22387695 162.7355957 C82.6905869 159.66976075 85.23119485 156.67250608 87.7824707 153.67700195 C91.67751408 149.10282961 95.4702078 144.4653991 99.20043945 139.75512695 C101.61331162 136.76733027 104.1004315 133.84643998 106.5949707 130.92700195 C110.39991236 126.47061016 114.07045482 121.93528509 117.6574707 117.30200195 C122.13231634 111.52946725 126.84070813 105.99941024 131.65258789 100.50610352 C135.3082863 96.32597737 138.82321054 92.06407921 142.2590332 87.70043945 C144.71048248 84.64322665 147.24143294 81.65980927 149.7824707 78.67700195 C153.0089047 74.88811163 156.19174462 71.07841028 159.2824707 67.17700195 C162.45028769 63.18620571 165.68804985 59.26150837 168.9699707 55.36450195 C169.42178711 54.8250293 169.87360352 54.28555664 170.33911133 53.72973633 C176.15892985 46.85021517 180.89065131 41.64133016 190.0949707 40.30200195 C202.08129956 39.55396954 209.62942566 46.86639618 218.2824707 54.17700195 C218.89912598 54.69601074 219.51578125 55.21501953 220.15112305 55.74975586 C223.71774141 58.76075626 227.25346336 61.80517221 230.77270508 64.87133789 C232.10237552 66.0212534 233.44898871 67.15151544 234.7980957 68.27856445 C240.21972772 72.83675137 244.76624351 77.33184099 245.5559082 84.7434082 C245.89585863 94.77194568 243.1453964 101.15512177 236.5324707 108.61450195 C235.83895508 109.35571289 235.14543945 110.09692383 234.4309082 110.8605957 C232.23538173 113.22777243 230.19167609 115.6701652 228.1574707 118.17700195 C227.40981445 119.09739258 226.6621582 120.0177832 225.8918457 120.96606445 C225.48256836 121.47041016 225.07329102 121.97475586 224.65161133 122.49438477 C221.9156175 125.856808 219.16161685 129.20444358 216.4074707 132.55200195 C215.80773437 133.28104736 215.20799805 134.01009277 214.59008789 134.76123047 C210.45099735 139.78303629 206.26270252 144.76003935 202.04467773 149.71557617 C198.73531512 153.61392434 195.53884422 157.59054252 192.36450195 161.59887695 C189.95162979 164.58667363 187.46450991 167.50756392 184.9699707 170.42700195 C181.16502905 174.88339375 177.49448658 179.41871882 173.9074707 184.05200195 C169.43262507 189.82453666 164.72423327 195.35459367 159.91235352 200.84790039 C156.25665511 205.02802654 152.74173087 209.28992469 149.3059082 213.65356445 C146.85445496 216.71078221 144.32339081 219.69408877 141.7824707 222.67700195 C133.64752349 232.13150669 133.64752349 232.13150669 126.2824707 242.17700195 C127.55065643 242.16811951 128.81884216 242.15923706 130.12545776 242.15008545 C142.1012348 242.068852 154.07695562 242.00896562 166.05294609 241.96975327 C172.2093241 241.94891579 178.36547893 241.9206679 184.52172852 241.87524414 C190.46749172 241.83165007 196.41304082 241.80783598 202.35895157 241.79749298 C204.62266534 241.79012598 206.88636794 241.7757401 209.14999008 241.75408173 C212.33096002 241.72486808 215.51105528 241.72105352 218.69213867 241.72290039 C219.61931198 241.70851929 220.54648529 241.69413818 221.50175476 241.67932129 C228.95343021 241.7258615 235.78980328 243.41197358 241.7199707 248.10668945 C242.2355957 248.74864258 242.7512207 249.3905957 243.2824707 250.05200195 C243.8187207 250.68879883 244.3549707 251.3255957 244.9074707 251.98168945 C248.73609441 258.09443526 248.58951271 264.2229157 248.58325195 271.20043945 C248.58753708 272.26058258 248.5918222 273.32072571 248.59623718 274.41299438 C248.60196717 276.65040372 248.60249058 278.88783169 248.59814453 281.12524414 C248.59498789 284.53344798 248.61844976 287.9407805 248.64379883 291.34887695 C248.6460724 293.52856336 248.64677505 295.7082521 248.64575195 297.88793945 C248.65956657 299.40549332 248.65956657 299.40549332 248.67366028 300.95370483 C248.6287605 307.88133741 247.81144598 313.55960694 243.73950195 319.3840332 C243.19680664 319.91383789 242.65411133 320.44364258 242.0949707 320.98950195 C241.56516602 321.53219727 241.03536133 322.07489258 240.48950195 322.6340332 C232.21387577 328.41964797 222.96436391 327.60476498 213.32901001 327.57141113 C211.58443795 327.57630243 209.83986913 327.58249335 208.0953058 327.58986902 C203.30977219 327.60626118 198.52440341 327.60395207 193.73885155 327.59849405 C188.57445126 327.59582299 183.41009482 327.61035706 178.24571228 327.62258911 C168.13143648 327.64364169 158.017218 327.64818407 147.90292288 327.64640123 C139.6818912 327.64509357 131.46087741 327.64889792 123.23984909 327.65632629 C120.87174142 327.65842549 118.50363374 327.66052309 116.13552606 327.66261911 C114.36751677 327.66418441 114.36751677 327.66418441 112.56379013 327.66578132 C90.27298647 327.68468283 67.98221572 327.68363369 45.69140737 327.67681199 C25.29996226 327.67123599 4.90864276 327.69206462 -15.48277299 327.72517246 C-36.42221516 327.75890616 -57.36159714 327.77407823 -78.30106699 327.76945543 C-90.05638293 327.7672105 -101.81158274 327.77245751 -113.56687546 327.79734802 C-123.57412204 327.81835689 -133.58118883 327.8219571 -143.58844279 327.80304843 C-148.69352941 327.79388833 -153.79828075 327.79275621 -158.90334129 327.81340408 C-163.57915836 327.83210661 -168.25436537 327.82761858 -172.93015917 327.80485827 C-174.61918592 327.80067073 -176.30825939 327.80487773 -177.99723677 327.81845421 C-187.09785965 327.88660997 -195.02315379 327.73245414 -202.7175293 322.17700195 C-204.97143555 319.82543945 -204.97143555 319.82543945 -206.2800293 317.55200195 C-206.73506836 316.79661133 -207.19010742 316.0412207 -207.65893555 315.26293945 C-209.4061681 311.82005317 -209.85172913 309.08714272 -209.89453125 305.28173828 C-209.90736649 304.28672806 -209.92020172 303.29171783 -209.9334259 302.26655579 C-209.94081284 301.19157333 -209.94819977 300.11659088 -209.95581055 299.0090332 C-209.96388229 297.90025314 -209.97195404 296.79147308 -209.98027039 295.64909363 C-209.9941088 293.29960696 -210.00483204 290.9501002 -210.01269531 288.60058594 C-210.02987883 285.0208482 -210.0737652 281.44204102 -210.11791992 277.86254883 C-210.12804965 275.5780504 -210.13656487 273.29354413 -210.14331055 271.0090332 C-210.16957268 269.41174126 -210.16957268 269.41174126 -210.19636536 267.78218079 C-210.17420693 260.12653883 -208.88226839 254.92248698 -203.82299805 248.93481445 C-203.19006836 248.39598633 -202.55713867 247.8571582 -201.9050293 247.30200195 C-200.96723633 246.47055664 -200.96723633 246.47055664 -200.01049805 245.62231445 C-193.9630268 241.81045013 -187.48332359 241.87426076 -180.55957031 241.8581543 C-179.06574074 241.84308586 -179.06574074 241.84308586 -177.54173279 241.82771301 C-174.26830594 241.79696011 -170.9949606 241.77986771 -167.72143555 241.76293945 C-165.4445679 241.74422148 -163.16770714 241.72464759 -160.89085388 241.70425415 C-154.91179472 241.65299363 -148.93271308 241.61333527 -142.95355225 241.57611084 C-136.84682686 241.53603314 -130.74019448 241.48495796 -124.63354492 241.43481445 C-112.66160511 241.3381271 -100.6896127 241.25369924 -88.7175293 241.17700195 C-90.14344627 239.43397853 -91.56939684 237.69098259 -92.99536133 235.94799805 C-93.7894339 234.9773642 -94.58350647 234.00673035 -95.40164185 233.00668335 C-98.46115593 229.26839715 -101.52392209 225.53282728 -104.5925293 221.80200195 C-105.18912354 221.07650146 -105.78571777 220.35100098 -106.40039062 219.60351562 C-110.03016463 215.19845949 -113.69843082 210.82998249 -117.4050293 206.48950195 C-121.0843668 202.17911529 -124.62136929 197.78142157 -128.0925293 193.30200195 C-132.56767047 187.52968331 -137.27575063 181.99942861 -142.08764648 176.50610352 C-145.74334489 172.32597737 -149.25826913 168.06407921 -152.6940918 163.70043945 C-155.14554108 160.64322665 -157.67649154 157.65980927 -160.2175293 154.67700195 C-164.10839791 150.10784776 -167.89682235 145.47527137 -171.6237793 140.77075195 C-174.10564499 137.69620192 -176.65618892 134.68536667 -179.2175293 131.67700195 C-183.06717682 127.15116231 -186.85073311 122.58644349 -190.53393555 117.9230957 C-192.27505962 115.73345309 -194.03430943 113.56327865 -195.80737305 111.3996582 C-196.34950439 110.73369629 -196.89163574 110.06773437 -197.45019531 109.3815918 C-198.52278329 108.06425542 -199.59990876 106.75059697 -200.68212891 105.44116211 C-205.72401368 99.22045194 -208.1829015 93.09239977 -207.54174805 84.94262695 C-205.8184556 74.84657018 -199.2824919 69.53860131 -191.45800781 63.60864258 C-186.7470089 60.03778767 -182.31854332 56.23200363 -177.9050293 52.30200195 C-169.91556289 45.29877657 -162.87977572 39.61360781 -151.7175293 40.17700195 C-136.07832175 42.67096196 -126.02479413 60.14443417 -116.98388672 71.80419922 C-113.01563952 76.88442392 -108.80698018 81.72881294 -104.55395508 86.57104492 C-100.96930342 90.67370369 -97.54651383 94.86496567 -94.2175293 99.17700195 C-89.78857535 104.91308703 -85.12145746 110.39791294 -80.34692383 115.84838867 C-76.69145649 120.02840738 -73.17664631 124.29010651 -69.7409668 128.65356445 C-67.28951752 131.71077726 -64.75856706 134.69419464 -62.2175293 137.67700195 C-58.32666068 142.24615614 -54.53823624 146.87873253 -50.8112793 151.58325195 C-48.32941862 154.65779578 -45.7790345 157.66878352 -43.2175293 160.67700195 C-39.24813803 165.33888757 -35.36388872 170.05441018 -31.5690918 174.8605957 C-30.09921194 176.69949603 -28.61054603 178.51502872 -27.10180664 180.32177734 C-26.31499512 181.26400146 -25.52818359 182.20622559 -24.7175293 183.17700195 C-24.71394677 181.9384719 -24.71394677 181.9384719 -24.71029186 180.67492104 C-24.65108717 160.55939506 -24.57550208 140.44398834 -24.48181438 120.3285923 C-24.43689984 110.60082713 -24.39747518 100.87309822 -24.37109375 91.14526367 C-24.3480785 82.66384881 -24.31464112 74.18254911 -24.26882774 65.70122564 C-24.24494305 61.21281388 -24.22618316 56.72451583 -24.21991539 52.23604202 C-24.21384297 48.00559933 -24.1937657 43.77544741 -24.16325378 39.54511261 C-24.154508 37.99805347 -24.15074376 36.45095628 -24.15252113 34.90387344 C-24.16786611 15.37244312 -24.16786611 15.37244312 -18.4675293 7.80200195 C-13.02830059 2.61001091 -7.52165613 0.09066483 0 0 Z " fill="#000200" transform="translate(335.717529296875,83.822998046875)"/>
<path d="M0 0 C19.14 0 38.28 0 58 0 C65.38042346 31.79259338 72.69474029 63.59782979 79.891505 95.43232679 C80.38223199 97.60290105 80.8730739 99.77344929 81.36395454 101.9439888 C84.5141068 115.87322084 87.66301372 129.80272961 90.80293393 143.73427218 C92.07640814 149.38399277 93.35198049 155.03323715 94.62905097 160.68214589 C95.37929527 164.00124189 96.12841132 167.32058344 96.87477493 170.64055443 C97.69670075 174.29444979 98.52235819 177.94748307 99.34887695 181.6003418 C99.58932078 182.67367012 99.82976461 183.74699844 100.07749462 184.85285187 C101.16965727 189.6630477 102.30650378 194.35672247 104 199 C104.30193268 197.84602722 104.60386536 196.69205444 104.91494751 195.50311279 C105.84563558 191.94607749 106.7763382 188.389046 107.70704651 184.83201599 C108.82340085 180.56547353 109.93971709 176.29892111 111.05601501 172.03236389 C114.18478017 160.07431364 117.31431295 148.11646489 120.44506836 136.15893555 C121.73557945 131.229672 123.02601746 126.30038932 124.31640625 121.37109375 C124.63955496 120.13669241 124.96270367 118.90229107 125.29564476 117.63048363 C129.49562521 101.58558741 133.68656729 85.53837095 137.86669922 69.48829269 C139.38367086 63.66551309 140.90283085 57.84330404 142.42213058 52.02113152 C143.83684423 46.59868846 145.24787142 41.17530329 146.65622997 35.7512064 C147.52492495 32.40920016 148.39714038 29.06812032 149.27035713 25.72729301 C149.66871008 24.20027984 150.06560162 22.6728845 150.4608593 21.14506721 C150.99803964 19.06937414 151.54050049 16.99512856 152.08422852 14.92114258 C152.38394058 13.76939041 152.68365265 12.61763824 152.9924469 11.4309845 C154.13013125 7.55686872 155.58226551 3.7806253 157 0 C176.47 0 195.94 0 216 0 C219.37503848 10.12511545 219.37503848 10.12511545 220.5193634 14.70996094 C220.91170166 16.27096024 220.91170166 16.27096024 221.31196594 17.86349487 C221.58775986 18.97588531 221.86355377 20.08827576 222.14770508 21.234375 C222.44752289 22.43160187 222.7473407 23.62882874 223.0562439 24.86233521 C223.87568581 28.13761759 224.6919757 31.41365423 225.50679994 34.69008636 C226.37731136 38.18739246 227.25174096 41.68371899 228.12565613 45.18017578 C229.60493243 51.10097491 231.08156642 57.0224278 232.55639648 62.94433594 C234.40074566 70.3499375 236.24916277 77.7545165 238.09904671 85.15873718 C247.49091013 122.75014102 256.79165633 160.36320217 266 198 C268.64111578 188.30219158 271.09500237 178.58714819 273.34057617 168.7890625 C273.65146232 167.44122828 273.962576 166.09344653 274.27389526 164.74571228 C275.10916938 161.12685309 275.94131248 157.50728074 276.77285171 153.8875618 C277.6569341 150.04171388 278.5440115 146.19655678 279.43074036 142.35131836 C281.11482413 135.04639654 282.79631104 127.74087962 284.47682506 120.43513584 C286.35534027 112.26914315 288.23662971 104.10379055 290.11822486 95.93850708 C291.219624 91.15874174 292.32073054 86.37890899 293.42188275 81.59908676 C294.31979831 77.70148095 295.21775297 73.80388416 296.11581039 69.90631104 C297.15474215 65.39722769 298.19343993 60.88809051 299.23193359 56.37890625 C299.39704052 55.66203644 299.56214744 54.94516663 299.7322576 54.20657349 C301.60337927 46.08135837 303.46979216 37.955094 305.32575893 29.82640076 C306.18757088 26.05210894 307.0516308 22.27833372 307.91591835 18.50460815 C308.46942132 16.08252934 309.0190182 13.65958736 309.56840515 11.23657227 C309.88694621 9.84516676 310.20568111 8.45380561 310.5246582 7.0625 C310.78946487 5.89847656 311.05427155 4.73445312 311.32710266 3.53515625 C312 1 312 1 313 0 C314.77991924 -0.09370624 316.56356739 -0.11744271 318.34594727 -0.11352539 C320.05760826 -0.11341209 320.05760826 -0.11341209 321.80384827 -0.11329651 C323.0454924 -0.10813522 324.28713654 -0.10297394 325.56640625 -0.09765625 C327.46204567 -0.09553383 327.46204567 -0.09553383 329.39598083 -0.09336853 C332.76124889 -0.08870582 336.1264499 -0.0797148 339.49169922 -0.06866455 C342.9234967 -0.05844846 346.35530109 -0.05387049 349.78710938 -0.04882812 C356.52475824 -0.0377738 363.26237525 -0.0210171 370 0 C369.36317868 6.82250285 367.73586176 13.14512799 365.87890625 19.73046875 C365.38891396 21.49427635 365.38891396 21.49427635 364.88902283 23.29371643 C363.97896597 26.56497621 363.06378046 29.83472132 362.14639282 33.10392761 C361.14686027 36.6706754 360.15396228 40.23927048 359.16015625 43.80761719 C357.16594361 50.96371 355.16532645 58.11799835 353.16269112 65.27173805 C351.44597751 71.40467625 349.7317686 77.53831023 348.01904297 83.67236328 C347.64191052 85.02302431 347.64191052 85.02302431 347.25715923 86.40097141 C346.74289655 88.24278012 346.2286382 90.08459004 345.71438408 91.92640114 C342.21795627 104.448206 338.71932408 116.96939158 335.21508789 129.48901367 C334.94121215 130.46749425 334.66733641 131.44597483 334.3851614 132.45410633 C333.26798897 136.44535002 332.15079906 140.43658882 331.03358269 144.42782021 C326.86216185 159.33131326 322.70140567 174.23775424 318.54679871 189.14594269 C316.73959673 195.62972963 314.93091594 202.11310424 313.12223053 208.59647751 C311.67205364 213.79531362 310.22292308 218.9944369 308.77612305 224.19421387 C307.42693812 229.04314768 306.07519266 233.89136028 304.72149658 238.73903656 C304.22509506 240.51854829 303.72967077 242.29833295 303.23529053 244.07840729 C302.55982648 246.51002986 301.88092538 248.94066739 301.20117188 251.37109375 C300.90845524 252.42973444 300.90845524 252.42973444 300.60982513 253.50976181 C299.59133968 257.13640533 298.40595793 260.48510517 297 264 C276.21 264 255.42 264 234 264 C232.09565818 258.28697453 230.30029083 252.68624207 228.78955078 246.87841797 C228.58835129 246.11488227 228.38715179 245.35134657 228.17985535 244.56467342 C227.51560029 242.04122301 226.85548929 239.51670762 226.1953125 236.9921875 C225.71870053 235.17893577 225.24179491 233.3657612 224.76461792 231.55265808 C223.48116059 226.67337504 222.20109082 221.7932094 220.92169189 216.91286087 C218.77127653 208.71312551 216.61491846 200.51494929 214.45882416 192.3167057 C213.90638544 190.21604736 213.35406379 188.11535822 212.80185699 186.0146389 C209.06281417 171.7922763 205.29740837 157.57723893 201.49837875 143.37078094 C200.75133087 140.57716081 200.00487464 137.78338321 199.25857544 134.98956299 C197.15097154 127.10115165 195.04129119 119.21332824 192.92140388 111.32820797 C192.06137493 108.12529551 191.20533072 104.92132795 190.35034561 101.71706581 C189.95488967 100.23864227 189.55766319 98.76069101 189.158535 97.28325462 C188.61678025 95.27733856 188.08110048 93.26989504 187.546875 91.26196289 C187.24620117 90.14189346 186.94552734 89.02182404 186.63574219 87.86781311 C186 85 186 85 186 81 C185.34 81 184.68 81 184 81 C183.89378326 81.57853226 183.78756653 82.15706451 183.6781311 82.75312805 C182.34790232 89.71906845 180.59273553 96.52032553 178.7109375 103.35546875 C178.3793161 104.57046555 178.0476947 105.78546234 177.70602417 107.03727722 C176.79191035 110.38549154 175.87337849 113.73247901 174.95387268 117.079216 C174.17322087 119.92238993 173.39492449 122.76620655 172.61657715 125.61001205 C170.23340182 134.31663996 167.84255926 143.02115253 165.4498291 151.72515869 C164.19551136 156.28807566 162.94229531 160.85129454 161.68930626 165.41457653 C158.47812396 177.10914547 155.26187255 188.80231309 152.04273224 200.49469376 C151.25604489 203.35303655 150.47006686 206.21157354 149.68426514 209.07015991 C148.42941399 213.63436954 147.17210063 218.19789463 145.91305923 222.76095009 C145.45159294 224.43472469 144.99086606 226.10870339 144.53100204 227.78291893 C141.19891288 239.91066704 137.65532408 251.96579301 134 264 C90.6914089 265.15869084 90.6914089 265.15869084 71 265 C63.91658999 239.70059348 57.02138557 214.3538668 50.21912384 188.97755432 C48.87627446 183.96941783 47.53157251 178.9617788 46.18701172 173.95410156 C44.50254453 167.68006001 42.81823798 161.40597554 41.13470459 155.13168335 C37.1603216 140.31975513 33.18137972 125.5090577 29.19921875 110.69921875 C28.92160391 109.66673067 28.64398907 108.63424259 28.35796165 107.570467 C26.97983548 102.44506511 25.601648 97.31967971 24.22341919 92.19430542 C22.67805453 86.44735545 21.13279409 80.70037747 19.58764648 74.95336914 C19.34310384 74.04385718 19.09856119 73.13434523 18.84660816 72.1972723 C17.64774723 67.73814227 16.4492862 63.27890543 15.25166321 58.81944275 C14.78400004 57.07819255 14.31632326 55.336946 13.84863281 53.59570312 C13.61816096 52.73763345 13.38768911 51.87956377 13.15023327 50.99549198 C11.64712362 45.40167542 10.13922678 39.80916658 8.62869453 34.21735001 C7.59089563 30.37435754 6.55499486 26.53085478 5.51935959 22.68727875 C5.02545324 20.85618876 4.53065607 19.0253388 4.03493118 17.1947403 C3.35355232 14.67828034 2.67520988 12.16102055 1.99755859 9.64355469 C1.79389553 8.89451622 1.59023247 8.14547775 1.3803978 7.37374115 C0 2.22785372 0 2.22785372 0 0 Z " fill="#000000" transform="translate(636,148)"/>
<path d="M0 0 C13.53 0 27.06 0 41 0 C41.33 73.59 41.66 147.18 42 223 C48.55379721 215.35390325 54.82768856 208.00569736 60.95678711 200.10375977 C64.84241354 195.10727424 68.98804884 190.35990155 73.16381836 185.60571289 C76.74835529 181.50310872 80.17108613 177.31194476 83.5 173 C87.92895395 167.26391492 92.59607184 161.77908901 97.37060547 156.32861328 C101.02607281 152.14859457 104.54088299 147.88689544 107.9765625 143.5234375 C110.42801178 140.46622469 112.95896224 137.48280731 115.5 134.5 C118.726434 130.71110968 121.90927392 126.90140833 125 123 C128.54855146 118.52068094 132.22936876 114.16659964 135.93359375 109.81640625 C139.3448699 105.80036092 142.6465201 101.70907849 145.91796875 97.578125 C148.33084092 94.59032832 150.81796079 91.66943803 153.3125 88.75 C157.11744166 84.2936082 160.78798412 79.75828313 164.375 75.125 C168.84380942 69.36025199 173.54582721 63.8377156 178.3503418 58.35107422 C183.50473722 52.45567128 188.65110644 46.52334034 193 40 C196.76858764 41.30653125 199.22821896 42.8364418 202.125 45.5625 C206.421319 49.50795295 210.87387685 53.20390568 215.40234375 56.87890625 C218.65085258 59.53144805 221.8308579 62.25341018 225 65 C224.12402984 69.55405991 221.45275511 72.25602788 218.4375 75.625 C217.33205315 76.88559728 216.22788869 78.14732025 215.125 79.41015625 C214.58617187 80.0252002 214.04734375 80.64024414 213.4921875 81.27392578 C211.57763483 83.48856704 209.74953168 85.76348481 207.9375 88.0625 C204.8703482 91.94585851 201.70806787 95.73334319 198.5 99.5 C195.27361216 103.28893188 192.09072805 107.09858919 189 111 C185.45144854 115.47931906 181.77063124 119.83340036 178.06640625 124.18359375 C175.32225467 127.41424312 172.63252191 130.67698054 170 134 C166.45144854 138.47931906 162.77063124 142.83340036 159.06640625 147.18359375 C155.6551301 151.19963908 152.3534799 155.29092151 149.08203125 159.421875 C146.66915908 162.40967168 144.18203921 165.33056197 141.6875 168.25 C137.88255834 172.7063918 134.21201588 177.24171687 130.625 181.875 C126.15015437 187.64753471 121.44176257 193.17759172 116.62988281 198.67089844 C112.97418441 202.85102459 109.45926017 207.11292274 106.0234375 211.4765625 C103.57198549 214.53377872 101.04095639 217.51711937 98.5 220.5 C92.80873611 227.18689175 87.2696111 233.97385186 82 241 C130.18 241.33 178.36 241.66 228 242 C228 255.53 228 269.06 228 283 C91.38 283 -45.24 283 -186 283 C-186 269.47 -186 255.94 -186 242 C-113.73 241.505 -113.73 241.505 -40 241 C-43.96 236.38 -47.92 231.76 -52 227 C-55.01384047 223.3432069 -58.01675442 219.68133596 -61 216 C-65.79741944 210.09614869 -70.63434909 204.23243664 -75.5625 198.4375 C-79.43112303 193.88844585 -83.19777962 189.27493392 -86.90625 184.59375 C-89.38811041 181.51920651 -91.93848513 178.50820956 -94.5 175.5 C-98.39075616 170.93074686 -102.17928921 166.29827428 -105.90625 161.59375 C-108.38811041 158.51920651 -110.93848513 155.50820956 -113.5 152.5 C-117.39498709 147.92577811 -121.18773515 143.2883996 -124.91796875 138.578125 C-127.33084092 135.59032832 -129.81796079 132.66943803 -132.3125 129.75 C-136.11744166 125.2936082 -139.78798412 120.75828313 -143.375 116.125 C-147.84984563 110.35246529 -152.55823743 104.82240828 -157.37011719 99.32910156 C-161.01911102 95.15664179 -164.52873365 90.90351758 -167.95703125 86.546875 C-170.97240259 82.78775049 -174.10068885 79.12633026 -177.23291016 75.46435547 C-178.49657178 73.98299463 -179.74871947 72.49183366 -181 71 C-181.62261719 70.27554688 -182.24523437 69.55109375 -182.88671875 68.8046875 C-183.25410156 68.20914063 -183.62148437 67.61359375 -184 67 C-182.80894803 63.4268441 -181.70545823 62.74996175 -178.75 60.5 C-174.49804916 57.1949635 -170.34885107 53.80350068 -166.25 50.3125 C-165.19274935 49.41271222 -164.13545876 48.51297136 -163.078125 47.61328125 C-162.57474609 47.1848291 -162.07136719 46.75637695 -161.55273438 46.31494141 C-159.04832471 44.19406869 -156.52422914 42.0972263 -154 40 C-149.61795112 41.58588436 -147.13109262 45.02650757 -144.25 48.5 C-143.71705322 49.13220459 -143.18410645 49.76440918 -142.63500977 50.41577148 C-139.03734804 54.70066979 -135.52638387 59.05079464 -132.05859375 63.44140625 C-129.5918838 66.5072412 -127.05127586 69.50449587 -124.5 72.5 C-120.6091876 77.06920366 -116.82070887 81.70172815 -113.09375 86.40625 C-110.61188959 89.48079349 -108.06151487 92.49179044 -105.5 95.5 C-101.60924384 100.06925314 -97.82071079 104.70172572 -94.09375 109.40625 C-91.61188959 112.48079349 -89.06151487 115.49179044 -86.5 118.5 C-82.60501291 123.07422189 -78.81226485 127.7116004 -75.08203125 132.421875 C-72.66915908 135.40967168 -70.18203921 138.33056197 -67.6875 141.25 C-63.88255834 145.7063918 -60.21201588 150.24171687 -56.625 154.875 C-52.15015437 160.64753471 -47.44176257 166.17759172 -42.62988281 171.67089844 C-38.97418441 175.85102459 -35.45926017 180.11292274 -32.0234375 184.4765625 C-29.57198699 187.53377684 -27.04100154 190.51716019 -24.5 193.5 C-21.2552753 197.31123759 -18.05174256 201.14295836 -14.9375 205.0625 C-10.37882206 210.77893742 -5.68075942 216.38308869 -1 222 C-0.505 112.11 -0.505 112.11 0 0 Z " fill="#00FE6B" transform="translate(334,106)"/>
<path d="M0 0 C14.9564426 13.08116998 27.04603476 30.99033153 32.5546875 50.234375 C32.5546875 50.894375 32.5546875 51.554375 32.5546875 52.234375 C24.60951349 52.4900809 16.66607693 52.685093 8.71779633 52.80430889 C5.02619911 52.861552 1.33742997 52.93906449 -2.35253906 53.06420898 C-5.91897445 53.18439657 -9.48270513 53.24962651 -13.05101013 53.27802467 C-15.06360303 53.30802786 -17.07511672 53.39380799 -19.08605957 53.4806366 C-28.1062879 53.48667712 -28.1062879 53.48667712 -31.98461914 49.85952759 C-34.01464669 47.06730925 -35.72392705 44.22300816 -37.4453125 41.234375 C-48.34177568 27.84011878 -64.91517049 21.65499023 -81.6328125 19.859375 C-103.3668377 17.9295651 -123.70674804 22.90686524 -141.1328125 36.484375 C-157.19222424 50.21699697 -165.6937687 69.52573222 -168.4453125 90.234375 C-168.73603904 94.82154605 -168.77938736 99.3889301 -168.7578125 103.984375 C-168.75289795 105.2206665 -168.7479834 106.45695801 -168.74291992 107.73071289 C-168.45099573 130.48433246 -161.16033955 151.44437867 -145.4453125 168.234375 C-128.43917555 184.59766828 -106.66490945 189.75003886 -83.66015625 189.4453125 C-66.30990936 188.93099594 -50.85841796 183.36812921 -37.4453125 172.234375 C-36.47851562 171.43773437 -36.47851562 171.43773437 -35.4921875 170.625 C-23.99410047 160.16277667 -18.77557206 144.66857353 -14.4453125 130.234375 C-44.1453125 130.234375 -73.8453125 130.234375 -104.4453125 130.234375 C-104.4453125 116.704375 -104.4453125 103.174375 -104.4453125 89.234375 C-57.2553125 89.234375 -10.0653125 89.234375 38.5546875 89.234375 C38.5546875 148.31151758 38.5546875 148.31151758 29.7421875 166.046875 C29.4030835 166.74570801 29.06397949 167.44454102 28.71459961 168.16455078 C13.76610548 198.2270587 -12.78334135 220.73690222 -44.20214844 231.96020508 C-79.51061254 243.81232383 -119.65604561 241.35398125 -153.25244141 225.33007812 C-163.1169973 220.40109496 -172.09844867 214.45708209 -180.4453125 207.234375 C-181.25226563 206.57179688 -182.05921875 205.90921875 -182.890625 205.2265625 C-206.42492031 185.23347777 -221.31899079 153.72616209 -224.4453125 123.234375 C-224.55488281 122.25597656 -224.66445312 121.27757812 -224.77734375 120.26953125 C-228.29917807 84.53465238 -220.46380393 46.44644353 -197.45556641 18.12988281 C-195.1866285 15.4346693 -192.82937654 12.82768541 -190.4453125 10.234375 C-189.59324219 9.28820312 -188.74117187 8.34203125 -187.86328125 7.3671875 C-140.23135038 -43.04981879 -51.79869198 -43.72807425 0 0 Z " fill="#000000" transform="translate(1972.4453125,175.765625)"/>
<path d="M0 0 C18.15 0 36.3 0 55 0 C57.01222656 8.68699219 59.02445313 17.37398437 61.09765625 26.32421875 C62.38722438 31.88870563 63.67686065 37.45317658 64.96679688 43.01757812 C67.00589684 51.81370528 69.04474983 60.60988904 71.08178711 69.40649414 C72.56666087 75.81866746 74.05250799 82.23061439 75.53942484 88.64231426 C76.32335727 92.02283378 77.10686994 95.40344907 77.88920784 98.784338 C82.1554516 117.21554864 86.5286099 135.61763455 91 154 C91.19492003 153.21847628 91.38984007 152.43695255 91.59066677 151.63174629 C96.32839922 132.63669404 101.06872037 113.64228956 105.8119421 94.64860725 C108.10564192 85.46348484 110.39845726 76.27814331 112.68920898 67.09228516 C114.68526822 59.08814611 116.68296811 51.08441868 118.68265921 43.08118618 C119.74192622 38.84150536 120.80035697 34.60161965 121.85682487 30.36124039 C122.85040232 26.37339694 123.84616574 22.38610587 124.84363747 18.39923477 C125.21009463 16.93285405 125.57574 15.4662702 125.94052887 13.99947357 C126.43723012 12.0027735 126.93679961 10.00681298 127.43711853 8.01101685 C127.7164218 6.89196016 127.99572508 5.77290348 128.28349209 4.61993599 C129 2 129 2 130 0 C148.81 0 167.62 0 187 0 C189.94244522 10.59280279 192.85811115 21.14048399 195.48925781 31.8059082 C195.80049591 33.05871582 196.11173401 34.31152344 196.43240356 35.60229492 C197.26914202 38.97072906 198.10280779 42.3399161 198.93576908 45.70928597 C199.8144216 49.26138141 200.69582128 52.81279526 201.57684326 56.36430359 C203.05098736 62.30844537 204.52321682 68.2530586 205.99414062 74.19799805 C207.69215782 81.06071106 209.39275181 87.92278141 211.09480023 94.78449565 C212.91633838 102.12799992 214.73615285 109.47193049 216.55538845 116.81600547 C217.0769758 118.92114305 217.59886962 121.02620445 218.12082672 123.13125038 C219.09136573 127.04590111 220.05995699 130.96103121 221.02832031 134.8762207 C221.31609344 136.03621078 221.60386658 137.19620087 221.90036011 138.39134216 C222.1637619 139.45762848 222.4271637 140.52391479 222.69854736 141.62251282 C222.92711048 142.54581548 223.1556736 143.46911814 223.39116287 144.42039967 C223.98533075 146.93784743 224.50870453 149.46066085 225 152 C226.43161401 149.32232592 227.39981166 146.85324765 228.08435059 143.89805603 C228.27458801 143.08804138 228.46482544 142.27802673 228.66082764 141.44346619 C228.86234436 140.56227615 229.06386108 139.68108612 229.27148438 138.77319336 C229.5989566 137.36899643 229.5989566 137.36899643 229.93304443 135.93643188 C230.65809032 132.82199845 231.37590984 129.70594522 232.09375 126.58984375 C232.60457699 124.38918416 233.1158565 122.18862957 233.62756348 119.98817444 C234.98282669 114.15476743 236.33201712 108.31997208 237.67993164 102.48486328 C239.01228387 96.72151766 240.35006466 90.95943337 241.6875 85.19726562 C243.78057199 76.17606424 245.87193121 67.15446798 247.9609375 58.13232422 C248.21394623 57.03962912 248.46695496 55.94693401 248.72763062 54.82112694 C250.23679176 48.30164468 251.74328887 41.78155242 253.24806976 35.26105785 C254.18335425 31.21034232 255.12060421 27.16008328 256.05830383 23.10992622 C256.49535065 21.21996986 256.93147122 19.32979904 257.36662292 17.43940544 C257.96023227 14.86084385 258.55689302 12.28300694 259.15429688 9.70532227 C259.32814911 8.9464805 259.50200134 8.18763874 259.68112183 7.40580177 C260.88601162 2.22797677 260.88601162 2.22797677 262 0 C279.16 0 296.32 0 314 0 C306.36747266 26.91470167 298.56168701 53.77327522 290.65172768 80.60719776 C289.56576271 84.29144867 288.48004468 87.97577228 287.39453125 91.66015625 C287.06727995 92.77085385 287.06727995 92.77085385 286.73341751 93.90398979 C280.70978504 114.35280979 274.74963343 134.82017184 268.79221821 155.28836346 C267.95064409 158.17945997 267.10862269 161.07042612 266.26656532 163.96138191 C265.70968504 165.87404381 265.15354451 167.78692105 264.59745789 169.69981384 C260.77828613 182.8140482 256.88053923 195.90318011 253 209 C233.53 209 214.06 209 194 209 C192.15535156 201.88695312 190.31070313 194.77390625 188.41015625 187.4453125 C187.22079548 182.86065308 186.03138418 178.27600688 184.84179688 173.69140625 C182.96558457 166.46057359 181.08953047 159.22970021 179.21459961 151.99853516 C177.703345 146.1700721 176.19133269 140.34180613 174.67872238 134.51369476 C174.08344283 132.21976825 173.48837264 129.92578739 172.89351273 127.63175201 C169.99860224 116.46950853 167.09600039 105.30991604 164.11279297 94.17089844 C163.89556674 93.35828741 163.67834051 92.54567638 163.45453167 91.70844078 C162.47121349 88.03210113 161.48287915 84.35727123 160.48414612 80.68508911 C160.15091843 79.44435638 159.81769073 78.20362366 159.47436523 76.92529297 C159.04304543 75.3368306 159.04304543 75.3368306 158.60301208 73.71627808 C158 71 158 71 158 67 C157.34 67 156.68 67 156 67 C155.82876366 68.67127457 155.82876366 68.67127457 155.65406799 70.37631226 C155.02693865 75.35996684 153.81346815 80.12796141 152.53491211 84.97900391 C152.15894897 86.43003006 152.15894897 86.43003006 151.77539062 87.91036987 C150.94754227 91.10037985 150.1125142 94.2884624 149.27734375 97.4765625 C148.69217635 99.72485744 148.10743154 101.97326241 147.52308655 104.22177124 C145.98040708 110.1527371 144.43152144 116.08206569 142.88146973 122.0111084 C141.63985182 126.76451564 140.40258292 131.51904925 139.16556358 136.27365494 C132.85298846 160.53631047 126.49554548 184.78564444 120 209 C100.53 209 81.06 209 61 209 C54.33802755 187.75813703 47.97360241 166.44763697 41.74993515 145.07409668 C39.66694001 137.92437062 37.57732884 130.7765723 35.48915672 123.62835693 C34.67212535 120.83123395 33.85537648 118.03402858 33.03865051 115.23681641 C27.05751622 94.75596073 21.03904467 74.28609951 15.01641846 53.81741333 C14.19103972 51.01203118 13.36587017 48.20658758 12.54077148 45.40112305 C11.24200984 40.98516593 9.94294213 36.56929899 8.64357948 32.15351868 C8.1678309 30.53666707 7.69214976 28.91979561 7.2165432 27.30290222 C6.77259251 25.79376442 6.32849088 24.28467102 5.88422108 22.77562714 C5.47272509 21.37763348 5.06166463 19.97951153 4.65109539 18.58124542 C3.30506726 14.00506778 1.91702884 9.4432679 0.48335266 4.89379883 C0 3 0 3 0 0 Z " fill="#000000" transform="translate(2419,203)"/>
<path d="M0 0 C18.15 0 36.3 0 55 0 C55 92.4 55 184.8 55 280 C36.85 280 18.7 280 0 280 C-0.33 271.09 -0.66 262.18 -1 253 C-3.97 256.3 -6.94 259.6 -10 263 C-24.3975639 276.01697558 -42.57978946 283.23717667 -62 284 C-63.28970703 284.07734375 -63.28970703 284.07734375 -64.60546875 284.15625 C-89.26349615 284.97251573 -111.59822351 276.43642645 -130.30859375 260.53125 C-152.62141512 239.54618723 -163.06218246 210.24648146 -164.22265625 180.0625 C-164.94597475 150.23262067 -158.12823933 120.81778855 -138 98 C-137.319375 97.10667969 -137.319375 97.10667969 -136.625 96.1953125 C-123.71280005 79.51705423 -100.88071652 70.03261691 -80.5703125 67.31640625 C-55.55683455 65.09967571 -30.85632466 70.11832087 -11.078125 86.40625 C-7.60308236 89.49964056 -4.28938083 92.71061917 -1 96 C-0.67 64.32 -0.34 32.64 0 0 Z M-89 127 C-89.65484375 127.55042969 -90.3096875 128.10085938 -90.984375 128.66796875 C-102.92021306 139.51662776 -108.34544607 154.56298806 -109.33984375 170.3671875 C-109.99641422 188.82180438 -105.064543 205.42016335 -92.8984375 219.41796875 C-82.96990804 229.89028692 -70.94103884 235.84658949 -56.4296875 236.52368164 C-42.48666418 236.75852705 -30.92562076 232.87954996 -20 224 C-18.76636719 223.08541016 -18.76636719 223.08541016 -17.5078125 222.15234375 C-7.6205897 213.66658088 -2.18864393 200.58383177 0 188 C1.40699876 167.13760459 -0.25025554 148.30047779 -14.1875 131.75 C-33.81577594 111.0019902 -67.14840825 107.76509046 -89 127 Z " fill="#000000" transform="translate(1655,132)"/>
<path d="M0 0 C22.13378596 18.73552806 33.3431512 43.73403263 35.875 72.43359375 C36.39565996 82.4002548 36.33322093 92.55009633 34.875 102.43359375 C33.875 103.43359375 33.875 103.43359375 31.37811184 103.55664158 C30.25813336 103.55571979 29.13815489 103.55479799 27.98423767 103.55384827 C26.06374855 103.55591026 26.06374855 103.55591026 24.10446167 103.55801392 C22.67242409 103.5544743 21.24038674 103.55083948 19.80834961 103.54711914 C18.31068422 103.54683728 16.8130187 103.54699499 15.31535339 103.54756165 C11.23701828 103.54784966 7.15871233 103.54195239 3.08038402 103.53498769 C-1.17707628 103.5287547 -5.43453718 103.5281504 -9.69200134 103.52696228 C-17.75973187 103.5238488 -25.82744891 103.51563519 -33.89517349 103.50561279 C-43.07760779 103.49445217 -52.26004272 103.48894133 -61.44248211 103.48391736 C-80.3366624 103.47345259 -99.23083012 103.45585282 -118.125 103.43359375 C-117.50890241 105.9895789 -116.88699674 108.54391566 -116.26171875 111.09765625 C-116.08926636 111.81574463 -115.91681396 112.53383301 -115.73913574 113.27368164 C-112.55507577 126.20961867 -105.79065803 136.19295211 -94.375 143.37109375 C-81.4520134 150.31576589 -66.95590499 151.35985729 -52.9140625 147.4140625 C-45.70265219 144.87895888 -37.34817349 140.84788 -33.79075623 133.78434753 C-29.86943386 126.01733205 -29.86943386 126.01733205 -25.22024536 124.46157837 C-21.61240018 124.15953969 -18.15203754 124.1956781 -14.53515625 124.359375 C-13.23549423 124.37493942 -11.93583221 124.39050385 -10.5967865 124.40653992 C-7.16016954 124.44831617 -3.72876285 124.55612061 -0.29418945 124.67828369 C3.21786999 124.79132976 6.73078184 124.84115676 10.24414062 124.89648438 C17.1232191 125.01404838 23.9988588 125.20147823 30.875 125.43359375 C30.10313985 127.6512742 29.32641089 129.86704918 28.546875 132.08203125 C28.1147168 133.31614746 27.68255859 134.55026367 27.23730469 135.82177734 C18.40806965 159.23032631 -0.50276843 176.31734343 -22.64453125 186.93359375 C-49.75183496 198.61620275 -82.76543449 198.51498497 -110.1953125 187.8984375 C-135.69829143 177.5286961 -153.84290441 158.56290421 -164.875 133.49609375 C-176.71235419 103.40450313 -176.68234736 66.99472754 -164.12744141 37.0546875 C-153.09070068 13.01201644 -134.20871842 -5.70990572 -109.27734375 -15.07421875 C-73.42823485 -27.53837268 -30.31285511 -23.90362112 0 0 Z M-105.16015625 37.13671875 C-112.51693296 45.73668835 -116.29126503 55.43118396 -118.125 66.43359375 C-85.785 66.43359375 -53.445 66.43359375 -20.125 66.43359375 C-21.50870583 51.21282967 -24.89883887 43.49999354 -36.20703125 33.61328125 C-56.68756546 17.53585992 -86.34304338 19.05547063 -105.16015625 37.13671875 Z " fill="#000000" transform="translate(1199.125,220.56640625)"/>
<path d="M0 0 C19.2114288 16.73722964 29.96318498 40.58293072 33.0625 65.625 C33.15032095 67.96882522 33.1930743 70.31468739 33.1953125 72.66015625 C33.19660156 73.96404297 33.19789063 75.26792969 33.19921875 76.61132812 C33.19712402 77.28107666 33.1950293 77.9508252 33.19287109 78.64086914 C33.1875045 80.68578474 33.19284297 82.73048164 33.19921875 84.77539062 C33.19728516 86.72928711 33.19728516 86.72928711 33.1953125 88.72265625 C33.19418457 89.90351807 33.19305664 91.08437988 33.19189453 92.30102539 C33.0625 95.625 33.0625 95.625 32.0625 101.625 C-18.4275 101.625 -68.9175 101.625 -120.9375 101.625 C-117.14309268 116.84324265 -117.14309268 116.84324265 -109.9375 129.625 C-109.195 130.676875 -108.4525 131.72875 -107.6875 132.8125 C-97.7079509 143.01885704 -85.46891368 147.67973912 -71.3125 147.875 C-59.30486892 147.74860388 -48.49864352 144.95911433 -39.6796875 136.4453125 C-36.77486922 133.26180316 -34.31086195 130.52199821 -32.64306641 126.51513672 C-29.44342918 123.09722429 -28.67017883 123.16254753 -24.15917969 122.94384766 C-21.72570466 122.94479762 -19.29210142 122.97869879 -16.859375 123.0390625 C-14.93680878 123.05179703 -14.93680878 123.05179703 -12.97540283 123.06478882 C-9.57496405 123.08765067 -6.17607382 123.14654508 -2.77624512 123.2130127 C0.69583181 123.27449591 4.1681601 123.30181634 7.640625 123.33203125 C14.44855107 123.39629533 21.25545112 123.49863932 28.0625 123.625 C27.60228264 125.20662868 27.13823177 126.78714216 26.67260742 128.3671875 C26.41460861 129.24745605 26.1566098 130.12772461 25.89079285 131.03466797 C24.70624451 134.73912289 23.13612923 138.16413071 21.375 141.625 C21.02397217 142.31505127 20.67294434 143.00510254 20.3112793 143.71606445 C17.20552167 149.64233583 13.61793903 154.70728409 9.0625 159.625 C8.60246582 160.1312793 8.14243164 160.63755859 7.66845703 161.15917969 C-10.18138065 180.63278052 -33.76658602 191.88448712 -60.2578125 193.53515625 C-61.14210938 193.56480469 -62.02640625 193.59445312 -62.9375 193.625 C-63.98679687 193.66496094 -65.03609375 193.70492187 -66.1171875 193.74609375 C-92.40083163 194.2526946 -118.42103928 187.68209089 -138.9375 170.625 C-139.69933594 170.02429688 -140.46117188 169.42359375 -141.24609375 168.8046875 C-160.86832843 152.5491794 -172.51094634 126.69555443 -174.9375 101.625 C-176.77804159 68.18070147 -172.69967619 37.56479432 -150.9375 10.625 C-150.47085938 9.99335938 -150.00421875 9.36171875 -149.5234375 8.7109375 C-134.86237009 -10.26749946 -108.9173548 -19.86263224 -85.9609375 -22.87109375 C-55.4981844 -26.25916378 -23.92117399 -19.91317988 0 0 Z M-103.3125 31.9375 C-113.07230639 41.43183966 -118.22872103 50.95476821 -119.9375 64.625 C-87.5975 64.625 -55.2575 64.625 -21.9375 64.625 C-24.54730739 48.96615568 -28.53674448 39.00887917 -41.1953125 29.44921875 C-59.50407386 17.2694587 -86.39680234 17.2502176 -103.3125 31.9375 Z " fill="#000000" transform="translate(2921.9375,222.375)"/>
<path d="M0 0 C0.82242187 0.67804688 1.64484375 1.35609375 2.4921875 2.0546875 C21.17335599 18.01033596 31.25402155 41.92883277 34 66 C34.21172054 70.62828871 34.24838138 75.24386872 34.20581055 79.87524414 C34.18730671 81.95926936 34.18530338 84.04285342 34.18554688 86.12695312 C34.16561213 91.57620416 34.07496685 96.62516577 33 102 C-17.49 102 -67.98 102 -120 102 C-115.26494634 119.75645122 -111.50046292 131.96783197 -95.87890625 141.42578125 C-82.70988387 148.62675278 -68.33855577 150.20362772 -53.8125 146.03125 C-44.88773165 142.75883494 -38.72796882 137.50388928 -33 130 C-32.57283691 128.97374512 -32.14567383 127.94749023 -31.70556641 126.89013672 C-28.50592918 123.47222429 -27.73267883 123.53754753 -23.22167969 123.31884766 C-20.78820466 123.31979762 -18.35460142 123.35369879 -15.921875 123.4140625 C-13.99930878 123.42679703 -13.99930878 123.42679703 -12.03790283 123.43978882 C-8.63746405 123.46265067 -5.23857382 123.52154508 -1.83874512 123.5880127 C1.63333181 123.64949591 5.1056601 123.67681634 8.578125 123.70703125 C15.38605107 123.77129533 22.19295112 123.87363932 29 124 C28.54066293 125.75096237 28.07640676 127.50063474 27.61010742 129.24975586 C27.35210861 130.22424179 27.0941098 131.19872772 26.82829285 132.20274353 C25.72821773 135.91784532 24.19210523 139.18833624 22.3125 142.5625 C21.96727295 143.19599365 21.6220459 143.8294873 21.26635742 144.48217773 C18.08767728 150.15114768 14.25518929 155.09445427 10 160 C9.236875 161.010625 8.47375 162.02125 7.6875 163.0625 C-9.39644057 181.73564435 -34.26612554 192.3490291 -59.3203125 193.91015625 C-60.20460938 193.93980469 -61.08890625 193.96945312 -62 194 C-63.04929687 194.03996094 -64.09859375 194.07992187 -65.1796875 194.12109375 C-92.28263757 194.64348621 -118.00557598 187.57987196 -139 170 C-139.62519531 169.5359375 -140.25039062 169.071875 -140.89453125 168.59375 C-156.31139461 156.75128821 -166.12329559 136.34023346 -171 118 C-171.31839844 116.81535156 -171.63679688 115.63070312 -171.96484375 114.41015625 C-176.52994642 93.68837685 -175.91520659 69.35083811 -170 49 C-169.63777344 47.74832031 -169.27554687 46.49664062 -168.90234375 45.20703125 C-164.65645623 32.23908326 -158.20723545 20.10550233 -149 10 C-148.11570312 9.02289063 -147.23140625 8.04578125 -146.3203125 7.0390625 C-110.31484492 -31.45310488 -39.94109386 -34.21477216 0 0 Z M-104.81640625 34.6875 C-113.26536702 43.63523663 -117.46216706 52.69733647 -119 65 C-86.66 65 -54.32 65 -21 65 C-23.23572292 50.46780102 -26.22162397 41.70379473 -37 32 C-57.44892022 17.33851003 -86.18557216 16.56342459 -104.81640625 34.6875 Z " fill="#000000" transform="translate(1433,222)"/>
<path d="M0 0 C18.7908652 15.98484674 31.06215498 35.15717254 36.6875 59.125 C36.87513916 59.92220459 37.06277832 60.71940918 37.25610352 61.54077148 C38.94119952 69.59878508 39.04463602 77.61653899 39 85.8125 C38.99676727 86.87756271 38.99676727 86.87756271 38.99346924 87.96414185 C38.94311932 98.28776717 38.63151026 108.13758405 35.6875 118.125 C35.38948486 119.144729 35.38948486 119.144729 35.08544922 120.18505859 C27.37606175 145.8541427 10.38995642 168.24558304 -13.3125 181.125 C-41.77459261 196.2299151 -74.81465569 199.18893207 -105.75390625 190.31640625 C-132.24910041 181.44589668 -152.63661393 163.76959297 -165.80859375 139.3515625 C-173.50720668 123.37873941 -176.68296267 106.63340037 -176.62817383 88.99951172 C-176.62502401 86.89106936 -176.64853675 84.78405061 -176.67382812 82.67578125 C-176.73636197 69.57427359 -174.91207473 56.85555476 -170.1875 44.5625 C-169.8874707 43.77222412 -169.58744141 42.98194824 -169.27832031 42.16772461 C-163.98445856 28.76443295 -156.37610157 18.31246128 -146.3125 8.125 C-145.74273438 7.48304688 -145.17296875 6.84109375 -144.5859375 6.1796875 C-109.51162882 -32.49198617 -39.14643512 -30.08418951 0 0 Z M-110.3125 44.125 C-121.98440023 59.6316538 -124.31974543 80.52004452 -121.81640625 99.36328125 C-119.1316591 116.37544032 -112.18544113 129.66306255 -98.3125 140.125 C-86.65088415 147.73469848 -72.98352677 149.46149836 -59.5625 147 C-44.74946148 143.5816065 -33.22395886 135.58780543 -24.84375 122.859375 C-15.03943324 105.35166651 -13.66544596 83.95741812 -18.21484375 64.6171875 C-22.67119688 50.43932381 -30.60062934 39.24836348 -43.47265625 31.59375 C-66.88520861 19.48491962 -92.95777153 24.48390546 -110.3125 44.125 Z " fill="#000000" transform="translate(2365.3125,220.875)"/>
<path d="M0 0 C12.61737387 11.81078376 18.80271169 26.64851834 21.56640625 43.40234375 C21.56640625 45.38234375 21.56640625 47.36234375 21.56640625 49.40234375 C4.40640625 49.40234375 -12.75359375 49.40234375 -30.43359375 49.40234375 C-31.42359375 44.94734375 -31.42359375 44.94734375 -32.43359375 40.40234375 C-35.7291884 32.8870519 -41.12364445 28.79296489 -48.43359375 25.40234375 C-58.78548937 21.47576265 -73.35449785 21.88354909 -83.43359375 26.40234375 C-87.53730531 29.05637459 -90.6023882 31.80303678 -92.43359375 36.40234375 C-93.1295763 41.23375748 -93.08579166 45.88424946 -90.80859375 50.27734375 C-86.65015086 55.74897913 -81.13790664 58.21639368 -74.80859375 60.52734375 C-74.02444092 60.81665771 -73.24028809 61.10597168 -72.43237305 61.40405273 C-62.03542634 65.08927678 -51.33726308 67.85665413 -40.67919922 70.67431641 C-21.94727532 75.6715048 -4.46285216 81.42104862 9.56640625 95.40234375 C10.22769531 96.04042969 10.88898437 96.67851562 11.5703125 97.3359375 C21.76972046 107.93186672 24.06465125 122.44727307 23.80859375 136.6015625 C22.80571675 152.34026125 16.09417171 165.6709042 4.56640625 176.40234375 C-16.93680862 194.15664287 -45.66522131 198.43940748 -72.69702148 195.88720703 C-97.94601186 193.15957887 -120.75748784 183.02624616 -137.43359375 163.40234375 C-146.10962955 151.34895837 -150.43359375 140.21182821 -150.43359375 125.40234375 C-132.61359375 125.40234375 -114.79359375 125.40234375 -96.43359375 125.40234375 C-94.94859375 130.35234375 -94.94859375 130.35234375 -93.43359375 135.40234375 C-88.14227199 144.17819448 -80.30038238 149.30558942 -70.3984375 151.93359375 C-58.56894559 153.80386915 -46.06739221 153.58088852 -35.99609375 146.52734375 C-32.15185768 143.33546289 -29.74950197 141.00958624 -29.125 135.85546875 C-28.84894962 129.66524809 -29.41715963 126.35865051 -33.43359375 121.40234375 C-46.71984944 111.6604714 -65.64984155 108.7945102 -81.2109375 104.55078125 C-126.52337217 92.16918973 -126.52337217 92.16918973 -138.87109375 72.33984375 C-139.75674825 70.71073843 -140.61414803 69.0657369 -141.43359375 67.40234375 C-141.74941406 66.76941406 -142.06523437 66.13648438 -142.390625 65.484375 C-148.22047348 52.01541471 -147.6247371 35.67903674 -142.5859375 22.140625 C-135.30962773 4.85013974 -121.49389611 -6.85815921 -104.34619141 -13.85888672 C-70.96304563 -26.75362748 -27.77809194 -23.74770022 0 0 Z " fill="#000000" transform="translate(3284.43359375,219.59765625)"/>
<path d="M0 0 C0 18.81 0 37.62 0 57 C-7.92 57.33 -15.84 57.66 -24 58 C-36.85140075 60.4435762 -47.71660883 63.41631037 -55.53515625 74.47265625 C-64.99146686 90.78794415 -63.32351755 112.00897928 -63.4140625 130.1875 C-63.4328098 132.58602538 -63.45238575 134.98454442 -63.4727478 137.38305664 C-63.52369905 143.64310941 -63.56352099 149.90318347 -63.60089111 156.16333008 C-63.64826742 163.70275995 -63.70970412 171.24208723 -63.76873779 178.78143311 C-63.85649784 190.18757981 -63.92658554 201.59371137 -64 213 C-81.49 213 -98.98 213 -117 213 C-117 144.03 -117 75.06 -117 4 C-99.51 4 -82.02 4 -64 4 C-63.505 18.355 -63.505 18.355 -63 33 C-60.69 30.03 -58.38 27.06 -56 24 C-42.07810664 8.6859173 -23.95066166 1.34932829 -3.51953125 0.11328125 C-1 0 -1 0 0 0 Z " fill="#000000" transform="translate(3110,199)"/>
<path d="M0 0 C0 18.81 0 37.62 0 57 C-7.92 57.33 -15.84 57.66 -24 58 C-35.64242271 60.21370009 -47.10966853 63.03220543 -54.69140625 72.84765625 C-64.80107293 89.47579458 -63.32290977 109.83309355 -63.4140625 128.52734375 C-63.43280543 130.97213878 -63.45238108 133.41692755 -63.4727478 135.86170959 C-63.5237451 142.24836513 -63.56354288 148.63504156 -63.60089111 155.02178955 C-63.64823046 162.71053846 -63.70968753 170.39918631 -63.76873779 178.08785248 C-63.85655423 189.72519346 -63.92660178 201.36251897 -64 213 C-81.49 213 -98.98 213 -117 213 C-117 144.03 -117 75.06 -117 4 C-99.51 4 -82.02 4 -64 4 C-63.505 18.355 -63.505 18.355 -63 33 C-61.02 30.36 -59.04 27.72 -57 25 C-43.47921197 9.04649443 -25.7608821 2.16631754 -5.38671875 0.26171875 C-3.59437165 0.1232098 -1.79769098 0 0 0 Z " fill="#000000" transform="translate(2167,199)"/>
<path d="M0 0 C8.29545927 6.44881791 13.92898506 16.08363148 15.75390625 26.46875 C17.29235319 42.29277562 15.29863979 55.60349378 5.25390625 68.1875 C-2.79329284 77.02101585 -13.71422442 81.48680444 -25.46875 82.21484375 C-39.50073607 82.57134746 -51.14569692 79.98160273 -61.8125 70.5 C-62.8953125 69.2625 -62.8953125 69.2625 -64 68 C-64.825 67.13375 -65.65 66.2675 -66.5 65.375 C-75.57142988 54.32278321 -76.02999118 40.59195446 -75 27 C-73.53281198 18.72505959 -70.66963416 12.18878138 -65 6 C-64.21302734 5.07767578 -64.21302734 5.07767578 -63.41015625 4.13671875 C-47.65995533 -13.16997262 -18.2927002 -12.72661709 0 0 Z M-59.8125 10.75 C-67.4467867 19.9784533 -68.90587105 31.40229877 -68 43 C-65.82136448 54.01767105 -61.47560514 62.24660927 -52.1796875 68.68359375 C-42.61238722 74.46169445 -31.94118359 76.16325532 -20.875 74.4375 C-9.97726534 71.72653141 -1.726748 66.52999287 4.23828125 57.02734375 C10.23554785 46.05779793 10.33092865 33.70492023 7.03515625 21.85546875 C3.90639223 13.22480272 -2.31056097 5.8975626 -10.5234375 1.71484375 C-27.73893708 -5.49705472 -46.73314288 -2.96669867 -59.8125 10.75 Z " fill="#000000" transform="translate(3411,330)"/>
<path d="M0 0 C4.62 -0.0825 9.24 -0.165 14 -0.25 C16.16175781 -0.30462402 16.16175781 -0.30462402 18.3671875 -0.36035156 C25.72225129 -0.42382789 30.83747266 -0.16568899 37 4 C41.03122055 8.93824518 41.64269621 13.09022545 41.3828125 19.4140625 C40.59795753 24.71583789 38.00874955 27.23335035 33.875 30.375 C31 32 31 32 29 32 C29.35827881 32.59014893 29.71655762 33.18029785 30.08569336 33.78833008 C31.70603848 36.46120257 33.32181499 39.13680825 34.9375 41.8125 C35.50146484 42.74126953 36.06542969 43.67003906 36.64648438 44.62695312 C37.45375977 45.9659668 37.45375977 45.9659668 38.27734375 47.33203125 C38.77484131 48.15421143 39.27233887 48.9763916 39.78491211 49.82348633 C41 52 41 52 42 55 C37.26361238 56.2611683 32.54624555 57.19655202 28 55 C23.29018197 50.06031287 16 40.05809761 16 33 C14.68 33 13.36 33 12 33 C12 40.26 12 47.52 12 55 C8.04 55 4.08 55 0 55 C0 36.85 0 18.7 0 0 Z M12 11 C12 15.62 12 20.24 12 25 C19.18908347 25.36902382 19.18908347 25.36902382 26.125 23.9375 C28.86830437 21.10275216 29 18.87428794 29 15 C27.49597949 12.85139927 26.32895015 12.16447508 24 11 C21.95944995 10.92934383 19.91665743 10.91578024 17.875 10.9375 C15.93625 10.958125 13.9975 10.97875 12 11 Z " fill="#000000" transform="translate(3363,338)"/>
</svg>
