
<svg version="1.0" xmlns="http://www.w3.org/2000/svg"
 width="61.000000pt" height="91.000000pt" viewBox="0 0 61.000000 91.000000"
 preserveAspectRatio="xMidYMid meet">

<g transform="translate(0.000000,91.000000) scale(0.100000,-0.100000)" stroke="none">
<path d="M260 893 c-8 -2 -21 -7 -29 -9 -11 -4 -12 -7 -2 -17 7 -7 55 -14 117
-18 149 -8 148 -7 99 -156 l-38 -118 -6 -248 c-5 -205 -9 -249 -21 -257 -8 -6
-21 -8 -29 -5 -7 3 -61 8 -120 11 l-106 6 25 -21 c14 -11 59 -28 100 -37 129
-29 286 2 331 66 14 19 18 48 20 130 3 183 0 220 -15 220 -13 0 -26 -114 -26
-240 0 -66 -16 -92 -69 -109 -19 -6 -36 -10 -37 -8 -2 2 -4 113 -5 248 0 242
4 289 39 379 12 29 7 38 63 -118 28 -79 38 -99 39 -77 6 108 -13 187 -64 279
-40 71 -37 69 -146 86 -41 6 -82 13 -90 15 -8 2 -22 1 -30 -2z"/>
<path d="M122 875 c-22 -16 -77 -171 -102 -291 -16 -73 -6 -469 11 -490 11
-14 49 -20 49 -8 0 3 -7 21 -16 40 -14 28 -15 63 -12 221 l5 188 47 155 c26
85 51 162 56 171 16 30 -4 37 -38 14z"/>
<path d="M96 571 c-8 -12 11 -18 147 -41 100 -16 137 -16 137 1 0 16 -36 26
-115 33 -44 3 -99 9 -121 12 -25 4 -44 2 -48 -5z"/>
<path d="M207 433 c-4 -3 -7 -35 -7 -71 l0 -65 -41 44 c-40 44 -40 44 -34 14
3 -16 20 -47 36 -67 31 -39 28 -49 -7 -23 -10 8 -30 15 -43 15 -20 0 -21 -2
-11 -15 7 -8 23 -15 36 -15 13 0 24 -4 24 -10 0 -5 -4 -10 -10 -10 -5 0 -10
-4 -10 -10 0 -5 11 -10 23 -10 16 0 28 -9 35 -25 6 -14 16 -25 22 -25 5 0 12
11 16 25 5 20 12 25 36 25 25 0 28 2 19 14 -10 12 -7 17 15 28 46 22 42 40 -5
23 -44 -15 -50 -12 -26 15 21 23 47 90 35 90 -5 0 -23 -19 -40 -42 -22 -30
-30 -36 -31 -22 -1 42 -11 109 -18 117 -4 4 -10 4 -14 0z"/>
</g>
</svg>
