<svg xmlns="http://www.w3.org/2000/svg" id="Слой_1" data-name="Слой 1" viewBox="0 0 704.08 844">
    <defs>
        <style>
            .cls-1 {
                outline: #000;
            }
            .cls-1,
            .cls-2 {
                stroke-miterlimit: 10;
            }
            .cls-2 {
                outline: #fff;
                stroke-width: 26px;
            }
            .cls-3 {
                font-size: 254.5px;
                fill: #fff;
                font-family: Sylfaen;
            }
        </style>
    </defs><path class="cls-1" d="M577.5,774.5s-4-152,46-200,126-53,126-53l90,220,18-154-35-66,44-20,39,24-32,59,32,161,76-219s89,11,130,44,50,186,50,186-97,87-292,83S577.5,774.5,577.5,774.5Z" transform="translate(-576.92 -138)"/><path d="M739.45,203.15c-4.5,14.53-6.27,29.69-7.14,44.79a380.11,380.11,0,0,0,.46,45.41q1.43,22.66,4.89,45.14c2.34,15,5.27,29.81,8.69,44.56l-.15-.41c4.89,9.47,10,18.87,16.21,27.5,2.92,4.46,6.37,8.51,9.66,12.68.8,1.07,1.75,2,2.63,3l2.68,2.94,2.69,2.94c.9,1,1.9,1.86,2.84,2.79,1.93,1.82,3.81,3.7,5.77,5.49l6.09,5.12,1.52,1.28c.51.42,1.06.79,1.59,1.19l3.21,2.36,3.19,2.36c1.07.8,2.22,1.45,3.32,2.19l3.35,2.14c1.13.7,2.2,1.48,3.38,2.09l6.95,3.84a152.6,152.6,0,0,0,14.49,6.5,139.31,139.31,0,0,0,30.59,8.09c2.6.28,5.21.62,7.8.86,1.28,0,2.53,0,3.82,0s2.59-.09,3.89-.26a85.69,85.69,0,0,0,15.37-3,127.12,127.12,0,0,0,29-12.64,159.59,159.59,0,0,0,25.68-18.69,138.26,138.26,0,0,0,21.23-23.54,106.93,106.93,0,0,0,8.13-13.54c1.18-2.34,2.27-4.79,3.34-7.23s2.09-4.92,3.1-7.39A292.21,292.21,0,0,0,1005,330a265.64,265.64,0,0,0,2.9-64.05,242.24,242.24,0,0,0-13.46-62.84,232.73,232.73,0,0,1,15.32,62.67,250.29,250.29,0,0,1,1.27,32.4,273.52,273.52,0,0,1-2.82,32.32,291.65,291.65,0,0,1-16.63,62.7c-1,2.53-2,5-3.07,7.54s-2.15,5-3.37,7.45a109.44,109.44,0,0,1-8.36,14.18A141.94,141.94,0,0,1,955,446.91a158.47,158.47,0,0,1-26.37,19.37,132,132,0,0,1-30,13.2,90.93,90.93,0,0,1-16.27,3.19c-1.37.18-2.78.19-4.17.29s-2.83,0-4.25,0c-2.76-.25-5.49-.61-8.24-.91A144.18,144.18,0,0,1,834,473.61a160.24,160.24,0,0,1-14.94-6.75l-7.17-4c-1.22-.63-2.32-1.44-3.48-2.16L805,458.49c-1.13-.76-2.32-1.44-3.41-2.26l-3.29-2.44L795,451.34c-.54-.42-1.1-.81-1.62-1.24l-1.56-1.33-6.23-5.33c-2-1.86-3.91-3.79-5.87-5.69-1-1-2-1.88-2.91-2.88L774,431.82l-2.73-3c-.9-1-1.86-2-2.67-3.1-3.34-4.3-6.84-8.48-9.79-13.07l-2.31-3.37c-.76-1.12-1.56-2.23-2.22-3.42l-4.16-7-1-1.76a18.33,18.33,0,0,1-1-1.79l-1.84-3.64-3.67-7.28-.09-.18,0-.23c-3.2-14.89-5.92-29.88-8-45s-3.49-30.26-4.21-45.47a377.54,377.54,0,0,1,.7-45.63c.17-1.9.27-3.79.49-5.68l.66-5.67.33-2.84.43-2.82.88-5.63A150.43,150.43,0,0,1,739.45,203.15Z" transform="translate(-576.92 -138)"/><path d="M733.09,314.55s35-86.53,68.54-90.26,39.8,22.39,72.14,22.39,47.26-28.61,70.89-28.61,63.93,96.48,63.93,96.48,10.69-164.88-77.61-171.1S705.59,105.08,733.09,314.55Z" transform="translate(-576.92 -138)"/><circle class="cls-2" cx="542.08" cy="682" r="149"/><text class="fill-primary dark:fill-white cls-3" transform="translate(476.31 767.37) scale(1.08 1)">$</text>
</svg>
