<svg xmlns="http://www.w3.org/2000/svg" xml:space="preserve" viewBox="0 0 52 52" id="seller-account">
    <g fill="none" stroke="" stroke-linecap="round" stroke-linejoin="round" stroke-miterlimit="10" stroke-width="4">
        <path d="M38.152 50H2c0-9.984 8.092-18.076 18.076-18.076S38.152 40.016 38.152 50zM20.076 31.924c-4.382 0-7.943-5.253-7.943-9.635s3.56-7.943 7.943-7.943 7.942 3.56 7.942 7.943-3.56 9.635-7.942 9.635z"></path>
    </g>
    <g fill="none" stroke="" stroke-linecap="round" stroke-linejoin="round" stroke-miterlimit="10" stroke-width="3">
        <circle cx="40.14" cy="11.86" r="9.86"></circle>
        <path d="M42.845 9.155c0-1.494-1.212-2.695-2.705-2.695s-2.706 1.201-2.706 2.695 1.212 2.705 2.706 2.705M37.434 14.566c0 1.482 1.212 2.695 2.706 2.695s2.705-1.213 2.705-2.695a2.707 2.707 0 0 0-2.705-2.706M40.14 17.26v1.37M40.14 5.09v1.37"></path>
    </g>
</svg>
