<svg xmlns="http://www.w3.org/2000/svg" enable-background="new 0 0 64 64" version="1" viewBox="0 0 64 64" id="seller-user">
  <path d="M51.005,62.411c-2.261,0-4.389-0.58-6.242-1.6c-0.066,0.014-0.135,0.021-0.205,0.021H1c-0.553,0-1-0.448-1-1c0-13.34,9.059-24.796,22.029-27.86c0.339-0.08,0.692,0.021,0.937,0.266l6.387,6.388l6.092-6.092c0.256-0.256,0.629-0.355,0.979-0.255c3.588,1.013,6.901,2.703,9.86,5.028c1.464-0.573,3.057-0.888,4.722-0.888C58.17,36.42,64,42.25,64,49.415C64,56.581,58.17,62.411,51.005,62.411z M42.254,42.765c-1.408,1.848-2.245,4.153-2.245,6.65c0,6.063,4.933,10.996,10.996,10.996C57.067,60.411,62,55.479,62,49.415c0-6.063-4.933-10.995-10.995-10.995c-1.398,0-2.737,0.262-3.969,0.741c-0.104,0.139-0.246,0.25-0.412,0.319C44.872,40.209,43.385,41.351,42.254,42.765z M2.019,58.833h39.659c-2.434-2.409-3.826-5.685-3.826-9.201c0-3.046,1.053-5.908,2.882-8.17c0.977-1.259,2.179-2.333,3.547-3.164c-2.396-1.75-5.025-3.067-7.842-3.929l-6.379,6.38c-0.188,0.188-0.441,0.293-0.707,0.293l0,0c-0.266,0-0.52-0.105-0.707-0.293l-6.695-6.697C10.498,37.005,2.45,47.04,2.019,58.833z M51.374,58.542c-0.553,0-1-0.448-1-1V56.49c-2.244-0.38-3.936-2.014-3.936-3.966c0-0.552,0.447-1,1-1s1,0.448,1,1c0,1.111,1.345,2.05,2.936,2.05c1.592,0,2.937-0.938,2.937-2.05s-1.345-2.05-2.937-2.05c-2.722,0-4.936-1.817-4.936-4.05c0-1.952,1.691-3.586,3.936-3.966v-1.168c0-0.552,0.447-1,1-1s1,0.448,1,1v1.168c2.244,0.38,3.937,2.014,3.937,3.966c0,0.552-0.447,1-1,1s-1-0.448-1-1c0-1.111-1.345-2.05-2.937-2.05c-1.591,0-2.936,0.938-2.936,2.05s1.345,2.05,2.936,2.05c2.722,0,4.937,1.817,4.937,4.05c0,1.952-1.692,3.586-3.937,3.966v1.052C52.374,58.094,51.927,58.542,51.374,58.542z M28.634,28.846c-7.515,0-13.629-6.114-13.629-13.629c0-7.515,6.114-13.628,13.629-13.628s13.628,6.113,13.628,13.628C42.262,22.732,36.148,28.846,28.634,28.846z M28.634,3.589c-6.412,0-11.629,5.216-11.629,11.628c0,6.412,5.217,11.629,11.629,11.629s11.628-5.217,11.628-11.629C40.262,8.805,35.046,3.589,28.634,3.589z"></path>
</svg>
